<svg width="24" height="24" viewBox="0 0 24 24" fill="none" xmlns="http://www.w3.org/2000/svg">
<path fill-rule="evenodd" clip-rule="evenodd" d="M6.63961 2C6.16293 2 5.75251 2.33646 5.65903 2.80388L5.2198 5H18.7802L18.341 2.80388C18.2475 2.33646 17.8371 2 17.3604 2H6.63961ZM20.8198 5L20.3021 2.41165C20.0217 1.00938 18.7904 0 17.3604 0H6.63961C5.20956 0 3.97832 1.00938 3.69787 2.41165L3.1802 5H3C2.44772 5 2 5.44772 2 6C2 6.55228 2.44772 7 3 7H4.11075L5.79905 21.3505C5.97679 22.8614 7.25724 24 8.7785 24H15.2215C16.7428 24 18.0232 22.8614 18.201 21.3505L19.8892 7H21C21.5523 7 22 6.55228 22 6C22 5.44772 21.5523 5 21 5H20.8198ZM17.8755 7H6.12454L7.41866 18H16.5813L17.8755 7ZM16.346 20H7.65396L7.78535 21.1168C7.8446 21.6205 8.27141 22 8.7785 22H15.2215C15.7286 22 16.1554 21.6205 16.2147 21.1168L16.346 20Z" fill="#ffffff" id="id_102"></path>
</svg>